<?xml version="1.0" encoding="utf-8"?>
<!-- Generator: Adobe Illustrator 19.0.0, SVG Export Plug-In . SVG Version: 6.00 Build 0)  -->
<svg version="1.1" xmlns="http://www.w3.org/2000/svg" xmlns:xlink="http://www.w3.org/1999/xlink" x="0px" y="0px"
	 viewBox="0 0 1024 1024" style="enable-background:new 0 0 1024 1024;" xml:space="preserve">
<style type="text/css">
	.st0{display:none;}
	.st1{display:inline;fill-rule:evenodd;clip-rule:evenodd;fill:#47C847;stroke:#CCCCCC;stroke-miterlimit:10;}
	.st2{display:inline;}
	.st3{fill:#47C847;}
	.st4{fill:#47C847;}
</style>
<g id="图层_1">
</g>
<g id="图层_2" class="st0">
	<path class="st1" d="M513.4,954.8c-244.1,0-442.7-198.6-442.7-442.6c0-244.1,198.6-442.6,442.7-442.6
		c244.1,0,442.7,198.6,442.7,442.6C956.1,756.3,757.5,954.8,513.4,954.8z M513.4,100.9c-226.9,0-411.4,184.5-411.4,411.4
		c0,226.8,184.6,411.3,411.4,411.3c226.9,0,411.4-184.5,411.4-411.3C924.8,285.4,740.2,100.9,513.4,100.9z M418.5,751.9h54.3v-326
		h-54.3v-21.2h127.1v347.2h54.3v20.1H418.5V751.9z M500.3,343.7c-13.6,0-25.3-4.9-35-14.6c-9.7-9.7-14.6-21.4-14.6-35
		c0-13.6,4.8-25.2,14.4-34.8c9.5-9.6,21.3-14.3,35.2-14.3c13.6,0,25.2,4.8,34.8,14.3c9.6,9.6,14.3,21.1,14.3,34.8
		c0,13.6-4.8,25.3-14.3,35C525.5,338.9,514,343.7,500.3,343.7z"/>
</g>
<g id="图层_3" class="st0">
	<g class="st2">
		<g>
			<polygon class="st3" points="513,162 131.8,501.3 383.8,501.3 383.8,850.2 635.9,850.2 635.9,511 887.9,511 			"/>
		</g>
	</g>
</g>
<g id="图层_4">
	<g>
		<path class="st4"  d="M596.2,371.2c-10.7,0-19,3.6-24.9,10.8c-5.9,7.2-8.8,15.6-8.8,25.3v11.6c0,9.3,2.9,17.2,8.7,23.8
			c5.8,6.6,13.5,9.9,23,9.9c9.4,0,17-4,22.9-12.1c5.9-8,8.8-18.6,8.8-31.8c0-11.5-2.7-20.6-8.1-27.4
			C612.4,374.6,605.2,371.2,596.2,371.2z"/>
		<path class="st4"  d="M488.6,371.2c-10.9,0-19.5,3.6-26,10.9c-6.4,7.3-9.7,17.5-9.7,30.5c0,12,3.1,21.7,9.4,29
			c6.3,7.3,14.9,10.9,25.8,10.9c11.1,0,19.6-3.6,25.6-10.8c6-7.2,9-17.2,9-29.9c0-13.1-3-23.1-8.9-30.2
			C507.9,374.7,499.5,371.2,488.6,371.2z"/>
		<path class="st4"  d="M510,156L124.5,514.5H384V852h255V510h258L510,156z M432.7,373.4h-24.3v60.7c0,6.3,1,10.9,3,13.8
			c2,2.9,5.4,4.3,10.2,4.3c3.4,0,7.1-1.1,11.1-3.3v7.7c-4.3,2.1-8.4,3.1-12.1,3.1c-13.6,0-20.4-8.2-20.4-24.5v-61.8h-16.6v-7.6h16.6
			V342c1.3-0.5,2.6-1,4.1-1.4c1.4-0.4,2.8-0.9,4.2-1.4v26.7h24.3V373.4z M519.8,446.8c-7.8,8.9-18.4,13.3-31.9,13.3
			c-13.4,0-24.1-4.4-31.9-13.3c-7.8-8.8-11.7-20.3-11.7-34.4c0-15.3,4.1-27.3,12.3-35.9c8.2-8.6,19-12.9,32.3-12.9
			c13.1,0,23.5,4.3,31.1,12.9c7.6,8.6,11.4,20.4,11.4,35.6C531.4,426.4,527.6,438,519.8,446.8z M623.2,445.9
			c-7.5,9.5-17.5,14.2-29.8,14.2c-13.8,0-23.9-6.2-30.5-18.6h-0.4v58.8h-8.2V365.9h8.2v19h0.4c3.3-6.8,8-12,14.1-15.7
			c6.2-3.7,12.9-5.5,20.2-5.5c11.7,0,20.8,4,27.4,12.1c6.6,8.1,9.9,19,9.9,32.8C634.5,424,630.8,436.4,623.2,445.9z"/>
	</g>
</g>
</svg>
