<?xml version="1.0" standalone="no"?><!DOCTYPE svg PUBLIC "-//W3C//DTD SVG 1.1//EN" "http://www.w3.org/Graphics/SVG/1.1/DTD/svg11.dtd"><svg t="1484553242411" class="icon" style="" viewBox="0 0 1024 1024" version="1.1" xmlns="http://www.w3.org/2000/svg" p-id="7916" xmlns:xlink="http://www.w3.org/1999/xlink" width="200" height="200"><defs><style type="text/css"></style></defs><path d="M154.945443 788.755208c-20.11206 0-36.430724-16.318664-36.430724-36.428677 0-20.110013 16.318664-36.431747 36.430724-36.431747l725.17924 0c20.11206 0 36.430724 16.320711 36.430724 36.431747 0 20.10899-16.317641 36.428677-36.430724 36.428677L154.945443 788.755208 154.945443 788.755208zM154.945443 311.74c-20.11206 0-36.430724-16.318664-36.430724-36.429701s16.318664-36.430724 36.430724-36.430724l725.17924 0c20.11206 0 36.430724 16.320711 36.430724 36.430724s-16.317641 36.429701-36.430724 36.429701L154.945443 311.74 154.945443 311.74zM154.945443 550.237883c-20.11206 0-36.430724-16.301268-36.430724-36.428677 0-20.091594 16.318664-36.412304 36.430724-36.412304l725.17924 0c20.11206 0 36.430724 16.319687 36.430724 36.412304 0 20.12741-16.317641 36.428677-36.430724 36.428677L154.945443 550.237883z" p-id="7917"></path></svg>