<?xml version="1.0" standalone="no"?><!DOCTYPE svg PUBLIC "-//W3C//DTD SVG 1.1//EN" "http://www.w3.org/Graphics/SVG/1.1/DTD/svg11.dtd"><svg t="1484551361268" class="icon" style="" viewBox="0 0 1024 1024" version="1.1" xmlns="http://www.w3.org/2000/svg" p-id="4810" xmlns:xlink="http://www.w3.org/1999/xlink" width="200" height="200"><defs><style type="text/css"></style></defs><path fill="rgb(255,0,0)" d="M924.746518 337.578514c-22.611869-53.398196-54.884388-101.276135-95.968134-142.35988-41.083745-41.083745-89.067812-73.462392-142.35988-95.968134-55.3091-23.355165-113.90917-35.244904-174.420143-35.244904s-119.110843 11.889939-174.420143 35.244904C284.180022 121.862369 236.302083 154.134889 195.218538 195.218634s-73.462392 89.067812-95.968134 142.35988c-23.354965 55.3091-35.244904 113.90917-35.244904 174.420143s11.889939 119.111043 35.244904 174.420143c22.612069 53.398196 54.884388 101.276135 95.968134 142.35988 41.083745 41.083745 89.067812 73.462392 142.35988 95.968333 55.202972 23.354965 113.90917 35.244904 174.419943 35.244904s119.111043-11.889939 174.420143-35.244904c53.398196-22.612069 101.276135-54.884388 142.35988-95.968333 41.083745-41.083745 73.462392-89.067812 95.968333-142.35988 23.354965-55.202972 35.244904-113.90917 35.244904-174.420143S948.101683 392.887614 924.746518 337.578514zM511.998361 913.281387c-221.236402 0-401.28293-180.046528-401.28293-401.28293S290.761959 110.715527 511.998361 110.715527 913.281291 290.762055 913.281291 511.998657 733.234963 913.281387 511.998361 913.281387zM511.998361 628.561627c12.845291 0 23.354965-10.509874 23.354965-23.354965l0-280.367311c0-12.845291-10.509874-23.355165-23.354965-23.355165-12.845291 0-23.355165 10.509874-23.355165 23.355165l0 280.473439C488.643396 618.051953 499.15307 628.561627 511.998361 628.561627zM480.150554 699.688603c0 17.589075 14.258733 31.847807 31.847807 31.847807 17.589075 0 31.847807-14.258733 31.847807-31.847807l0 0c0-17.589075-14.258733-31.847807-31.847807-31.847807C494.409287 667.840796 480.150554 682.099529 480.150554 699.688603z" p-id="4811"></path></svg>