<?xml version="1.0" standalone="no"?><!DOCTYPE svg PUBLIC "-//W3C//DTD SVG 1.1//EN" "http://www.w3.org/Graphics/SVG/1.1/DTD/svg11.dtd"><svg t="1484551342827" class="icon" style="" viewBox="0 0 1024 1024" version="1.1" xmlns="http://www.w3.org/2000/svg" p-id="4139" xmlns:xlink="http://www.w3.org/1999/xlink" width="200" height="200"><defs><style type="text/css"></style></defs><path d="M535.272727 1012.365964C448.907636 1012.365964 383.604364 950.390691 372.642909 892.976873 370.804364 883.458327 378.437818 874.498327 389.655273 872.939055 400.826182 871.4496 411.415273 877.872873 413.253818 887.391418 421.538909 930.888145 472.576 977.456873 535.272727 977.456873 597.969455 977.456873 649.006545 930.888145 657.291636 887.391418 659.130182 877.872873 669.696 871.4496 680.890182 872.939055 692.107636 874.498327 699.741091 883.458327 697.902545 892.976873 686.941091 950.390691 621.637818 1012.365964 535.272727 1012.365964" p-id="4140"></path><path d="M512 23.272727C460.8 23.272727 418.909091 65.163636 418.909091 116.363636L418.909091 139.636364C302.545455 175.220364 209.454545 287.115636 209.454545 418.909091L209.454545 628.363636C209.454545 628.363636 204.008727 698.181818 162.909091 698.181818 135.354182 698.181818 93.090909 725.341091 93.090909 768 93.090909 810.658909 138.728727 837.818182 162.909091 837.818182L861.090909 837.818182C885.271273 837.818182 930.909091 818.432 930.909091 768 930.909091 717.568 889.460364 698.181818 861.090909 698.181818 819.874909 698.181818 814.545455 628.363636 814.545455 628.363636L814.545455 418.909091C814.545455 287.115636 744.727273 175.220364 605.090909 139.636364L605.090909 116.363636C605.090909 65.163636 563.2 23.272727 512 23.272727M512 69.818182C537.669818 69.818182 558.545455 90.693818 558.545455 116.363636L558.545455 139.636364C558.545455 160.907636 572.974545 179.479273 593.594182 184.738909 704.442182 212.968727 768 298.333091 768 418.909091L768 628.363636C768 629.550545 768.046545 630.737455 768.139636 631.901091 772.421818 688.058182 802.839273 744.727273 861.090909 744.727273 864.977455 744.727273 884.363636 745.844364 884.363636 768 884.363636 789.317818 861.323636 791.272727 861.090909 791.272727L163.956364 791.319273C157.905455 790.458182 139.636364 779.869091 139.636364 768 139.636364 754.036364 158.021818 745.006545 162.909091 744.727273 221.044364 744.727273 251.485091 688.104727 255.860364 631.994182 255.953455 630.784 256 629.573818 256 628.363636L256 418.909091C256 314.158545 330.24 215.412364 432.523636 184.157091 452.096 178.176 465.454545 160.093091 465.454545 139.636364L465.454545 116.363636C465.454545 90.693818 486.330182 69.818182 512 69.818182" p-id="4141"></path></svg>