<?xml version="1.0" standalone="no"?><!DOCTYPE svg PUBLIC "-//W3C//DTD SVG 1.1//EN" "http://www.w3.org/Graphics/SVG/1.1/DTD/svg11.dtd"><svg t="1487064630486" class="icon" style="" viewBox="0 0 1024 1024" version="1.1" xmlns="http://www.w3.org/2000/svg" p-id="3950" xmlns:xlink="http://www.w3.org/1999/xlink" width="200" height="200"><defs><style type="text/css"></style></defs><path d="M872.298191 521.874688c2.660538-17.395823-3.78615-34.689317-19.340062-51.573499-42.67093-46.45708-114.710103-121.873089-133.333866-141.213151C714.917158 302.687319 696.907365 200.25662 684.423304 138.040971c-6.139702-30.391526-29.265914-50.754872-57.610873-50.754871-9.618867 0-19.44239 2.251224-29.163585 6.753672C539.321675 121.054462 443.849305 167.511542 419.802139 179.279304 392.68512 176.107125 284.524033 163.21375 221.694414 156.869391c-18.930748-1.944239-36.633557 5.116419-49.219946 19.237734-11.767763 13.098031-17.498151 30.493854-15.656241 47.787349 6.753672 63.034276 20.056361 169.660438 23.433197 196.368142-11.665434 24.354152-58.224843 121.668432-84.830219 179.893275-11.563106 25.275107-7.162986 43.796542-1.432597 54.950335 7.674628 14.837614 22.205256 25.275107 39.908064 28.651943 61.49935 11.870091 170.683721 30.698511 198.005397 35.303288 19.749375 18.726092 97.621265 92.197861 144.180673 134.35715 13.916658 12.58639 28.24263 19.033077 42.67093 19.033077 13.81433 0 33.563705-5.832717 49.424603-33.666034 31.619466-55.564305 83.909264-152.059958 96.904967-176.209453 23.433197-12.791046 116.040372-63.443589 171.809333-95.677026 25.786749-15.04227 33.461377-32.745078 35.405616-45.024483z m-41.954631-6.446688c-0.61397 4.195463-6.139702 9.721195-14.735286 14.632957-63.443589 36.633557-175.288498 97.621265-176.41411 98.235236-3.581493 1.944239-6.549016 5.01409-8.493255 8.595583-0.61397 1.125612-63.443589 117.779954-99.360847 180.81423-4.40012 7.674628-9.107225 12.177076-12.58639 12.177076-1.22794 0-6.037374-0.61397-14.223643-7.981613-53.006096-47.992006-147.148196-137.222344-148.17148-138.1433-3.069851-2.865194-6.856001-4.809433-11.051464-5.525732-1.330269-0.204657-133.538523-22.716898-203.4288-36.224243-3.683821-0.716299-8.288598-2.762866-10.232837-6.446687-1.944239-3.888478-1.125612-10.232837 2.353553-17.907465 30.289198-66.308784 86.67213-183.679424 87.286099-184.805036 1.739582-3.683821 2.455881-7.776956 1.944239-11.870091-0.204657-1.22794-16.474868-129.95703-24.149495-201.689218-0.511642-5.116419 1.432597-10.846807 5.01409-14.939942 2.148896-2.455881 5.935045-5.321075 13.098032-5.321075h0.306985c71.425202 7.162986 201.996203 22.921555 203.326471 23.126212 4.093135 0.511642 8.18627-0.204657 11.870091-2.046568 1.125612-0.511642 116.347357-56.792245 182.758469-87.593085 4.093135-1.944239 7.981613-2.865194 11.358449-2.865194 11.767763 0 15.246927 12.688718 16.065554 16.577196 14.223643 71.015889 35.917258 195.140202 36.121915 196.470471 0.716299 4.195463 2.660538 7.981613 5.62806 11.051464 0.818627 0.920955 88.51404 92.095533 137.222345 145.203957 5.935045 6.651344 9.004897 12.688718 8.493255 16.474867z m99.872489 384.550015L760.555611 730.215249c-8.288598-8.288598-21.693614-8.288598-29.982212 0-8.288598 8.288598-8.288598 21.693614 0 29.982213l169.762766 169.762766c4.195463 4.195463 9.516538 6.242031 15.04227 6.24203 5.423404 0 10.846807-2.046567 14.939942-6.24203 8.288598-8.288598 8.288598-21.693614-0.102328-29.982213z" p-id="3951"></path></svg>