<?xml version="1.0" standalone="no"?><!DOCTYPE svg PUBLIC "-//W3C//DTD SVG 1.1//EN" "http://www.w3.org/Graphics/SVG/1.1/DTD/svg11.dtd"><svg t="1487060402658" class="icon" style="" viewBox="0 0 1024 1024" version="1.1" xmlns="http://www.w3.org/2000/svg" p-id="6876" xmlns:xlink="http://www.w3.org/1999/xlink" width="200" height="200"><defs><style type="text/css"></style></defs><path d="M511.99997 152.645207c-242.651146 0-439.447915 171.132914-439.447915 382.160352 0 123.575722 67.504454 233.407293 172.105951 303.222711l-0.12163 161.280912 143.644613-97.790236c39.286376 9.973631 80.883715 15.446965 123.818981 15.446965 242.772776 0 439.447915-171.132914 439.447915-382.160352C951.569515 323.778121 754.772745 152.645207 511.99997 152.645207L511.99997 152.645207zM511.99997 878.774201c-47.800451 0-93.654828-7.176149-136.103575-20.312151l-34.42119 28.704597c0.608148 0.243259 1.337926 0.486519 1.946074 0.729778L283.336233 930.466801l-0.608148-78.329493 0-35.029338c-103.993348-62.15275-171.984321-165.41632-171.984321-282.302411 0-189.985509 179.646989-343.968642 401.256206-343.968642 221.609217 0 401.256206 153.983133 401.256206 343.968642C913.256176 724.791068 733.609187 878.774201 511.99997 878.774201L511.99997 878.774201zM511.99997 878.774201" p-id="6877"></path><path d="M237.968374 533.346003c0 13.257632 5.473334 26.515263 14.838817 35.880746 9.365483 9.365483 22.623114 14.838817 35.880746 14.838817 13.257632 0 26.515263-5.473334 35.880746-14.838817 9.365483-9.365483 14.838817-22.623114 14.838817-35.880746 0-13.257632-5.473334-26.515263-14.838817-35.880746-9.365483-9.365483-22.623114-14.838817-35.880746-14.838817-13.257632 0-26.515263 5.473334-35.880746 14.838817C243.441709 506.83074 237.968374 519.966742 237.968374 533.346003L237.968374 533.346003zM237.968374 533.346003" p-id="6878"></path><path d="M462.983222 533.346003c0 13.257632 5.473334 26.515263 14.838817 35.880746 9.365483 9.365483 22.623114 14.838817 35.880746 14.838817 13.257632 0 26.515263-5.473334 35.880746-14.838817 9.365483-9.365483 14.838817-22.623114 14.838817-35.880746 0-13.257632-5.473334-26.515263-14.838817-35.880746-9.365483-9.365483-22.623114-14.838817-35.880746-14.838817-13.257632 0-26.515263 5.473334-35.880746 14.838817C468.456556 506.83074 462.983222 519.966742 462.983222 533.346003L462.983222 533.346003zM462.983222 533.346003" p-id="6879"></path><path d="M687.876439 533.346003c0 13.257632 5.473334 26.515263 14.838817 35.880746 9.365483 9.365483 22.623114 14.838817 35.880746 14.838817 13.257632 0 26.515263-5.473334 35.880746-14.838817 9.365483-9.365483 14.838817-22.623114 14.838817-35.880746 0-13.257632-5.473334-26.515263-14.838817-35.880746-9.365483-9.365483-22.623114-14.838817-35.880746-14.838817-13.257632 0-26.515263 5.473334-35.880746 14.838817C693.349774 506.83074 687.876439 519.966742 687.876439 533.346003L687.876439 533.346003zM687.876439 533.346003" p-id="6880"></path></svg>