<?xml version="1.0" standalone="no"?><!DOCTYPE svg PUBLIC "-//W3C//DTD SVG 1.1//EN" "http://www.w3.org/Graphics/SVG/1.1/DTD/svg11.dtd"><svg t="1487061120106" class="icon" style="" viewBox="0 0 1024 1024" version="1.1" xmlns="http://www.w3.org/2000/svg" p-id="8870" xmlns:xlink="http://www.w3.org/1999/xlink" width="200" height="200"><defs><style type="text/css"></style></defs><path d="M310.51776 132.20352l-11.0592-4.61312 9.25696 16.64512c8.00256 23.424-2.78016 41.6-32.35328 54.53312-17.85856 8.00256-34.80576 14.00832-50.83648 18.01216s-27.42272 6.00064-34.18624 6.00064h-10.17344c2.46272 0.60928 6.00064 1.536 10.61888 2.78016 4.61312 1.24416 13.0816 2.31424 25.40032 3.22048s24.03328 0.44544 35.13344-1.38752 23.424-7.22432 36.9664-16.17408c13.54752-8.95488 24.93952-20.80768 34.18624-35.57888 5.53984-11.70944 6.61504-21.10464 3.2256-28.18048-3.39456-7.07584-8.78592-12.16512-16.1792-15.2576z" p-id="8871"></path><path d="M394.65472 104.49408s-0.0256 24.2176-0.0256-0.03072-41.74336-58.09152-49.45408-63.31392c-7.7056-5.22752-14.94528-7.84896-21.7088-7.86944-6.7584-0.02048-16.4608 2.44736-29.10208 7.39328-12.63616 4.95104-26.96192 11.73504-42.96704 20.34688-16.01024 8.61696-32.3328 19.39968-48.9728 32.35328s-31.72864 26.97216-45.27616 42.05056-24.63744 32.49152-33.26976 52.22912-12.9536 39.14752-12.9536 58.22976v213.48864H394.6496V104.49408zM140.8 428.8V240.29184c3.70688-24.03328 23.00416-67.55328 46.72-93.73184C211.23584 120.37632 248.28928 98.304 272.64 83.2c24.3456-15.104 49.05472-18.56 59.52-18.56 8.63744 0 35.2 21.12 36.26496 45.25568 0 13.19936 0.42496 24.1408 0.42496 24.1408l0.37376 294.76352H140.8zM146.79552 873.42592c-0.01536 3.07712 1.05472 5.84704 3.2256 8.30976 2.16576 2.46272 4.79232 3.69664 7.86432 3.69664h24.04352c3.07712 0 5.84704-1.2288 8.30976-3.69664 2.46272-2.46272 3.69664-5.23264 3.69664-8.30976v-283.7248a11.6992 11.6992 0 0 0-1.86368-6.48192 11.8528 11.8528 0 0 0-4.61312-4.16768 12.33408 12.33408 0 0 0-5.56032-1.38752h-24.04352c-3.0976 0-5.71904 1.08032-7.86944 3.2256-2.1504 2.1504-3.22048 5.07392-3.22048 8.78592l0.0256 0.03072v283.71968zM841.92256 72.5504c-57.31328-25.56928-117.22752-35.27168-179.74784-29.10208-62.5152 6.17472-119.96672 28.04736-172.34944 65.62304a352.3072 352.3072 0 0 0-42.97216 36.49536 387.10272 387.10272 0 0 0-36.49024 42.05056l1.86368-0.91648 185.74848 207.92832v0.91648h200.53504l177.4336-198.70208 8.30976-8.30976c-37.5808-51.74784-85.02272-90.40896-142.33088-115.98336z m-51.52256 294.8096l-64.61952-0.48128 44.06784-137.64608-22.17984-6.4768-48.68608 144.09728-40.03328-145.03936-22.17984 7.39328 28.94336 137.64608h-58.29632L449.28 178.56c6.1696-6.784 50.34496-45.62944 76.8-60.8s77.11744-35.80416 126.72-42.88c49.60256-7.07584 102.00064-1.25952 149.12 15.36S913.31072 144.13312 947.2 181.12L790.4 367.36zM787.22048 425.1392c-9.24672-9.24672-20.33664-13.87008-33.26976-13.87008h-95.16544c-12.93312 0-24.02304 4.62336-33.26464 13.87008-9.25184 9.24672-13.87008 20.33664-13.87008 33.26976l-47.13984 473.16992c0 12.93312 4.61824 24.02304 13.87008 33.26976 9.2416 9.25184 20.33152 13.87008 33.26976 13.87008h189.44c12.93312 0 24.02304-4.61824 33.26976-13.87008 9.25184-9.24672 13.87008-20.33664 13.87008-33.26976l-47.13984-473.16992c0-12.93312-4.61824-24.02304-13.87008-33.26976z m12.48768 511.02208c-6.73792 7.97184-14.82752 11.94496-24.25856 11.94496h-138.15808c-9.43616 0-17.52576-3.97312-24.25856-11.94496-6.74816-7.9616-10.12224-17.50528-10.12224-28.64128l34.3808-420.60288c0-11.136 3.36896-20.6848 10.11712-28.6464 6.7328-7.95648 14.82752-11.93984 24.25856-11.93984h69.40672c9.43616 0 17.52576 3.98336 24.26368 11.93984 6.74304 7.9616 10.11712 17.5104 10.11712 28.6464l34.3808 420.60288c-0.00512 11.136-3.37408 20.67968-10.12736 28.64128z" p-id="8872"></path><path d="M66.65728 933.79072h-0.0256c0 12.93312 4.62336 24.02304 13.86496 33.26976 9.24672 9.25184 20.33664 13.87008 33.26976 13.87008h330.86464c13.56288 0 24.96-4.61824 34.19136-13.87008 9.22112-9.24672 13.8496-20.33664 13.87008-33.26976V483.71712h-426.0352v450.0736z m397.98272-420.74624v387.52768c-0.01536 10.84416-3.8144 30.38208-11.37664 38.12864-7.57248 7.75168-16.91648 11.62752-28.04736 11.62752H133.34016c-10.60864 0-19.70688-3.87584-27.2896-11.62752-7.46496-7.6288-11.23328-26.62912-11.35104-37.57056v-388.08576H464.64z" p-id="8873"></path></svg>