<?xml version="1.0" standalone="no"?><!DOCTYPE svg PUBLIC "-//W3C//DTD SVG 1.1//EN" "http://www.w3.org/Graphics/SVG/1.1/DTD/svg11.dtd"><svg t="1484904362542" class="icon" style="" viewBox="0 0 1024 1024" version="1.1" xmlns="http://www.w3.org/2000/svg" p-id="2039" xmlns:xlink="http://www.w3.org/1999/xlink" width="200" height="200"><defs><style type="text/css"></style></defs><path fill="#979797" d="M556.924165 918.406057 92.431156 918.406057c-14.933107 0-27.013237-12.081153-27.013237-27.009144 0-135.902226 245.846244-241.865583 320.652997-258.033821 1.797949-5.03569 3.40454-13.926174 4.196579-22.817682-16.618493-18.938328-52.756551-65.364707-67.240427-125.21891-14.795984-7.80578-27.140127-23.159466-34.868135-44.183292-11.000542-29.963429-11.900028-71.113641 8.807596-98.78691-4.034896-37.721113-14.136975-135.687332 44.212968-200.660112 35.000142-38.957267 87.624686-58.71731 156.423609-58.71731 68.793806 0 121.41835 19.760043 156.423609 58.71731 58.344826 64.97278 48.242747 162.938999 44.207851 200.660112 20.706601 27.67327 19.808138 68.823482 8.80862 98.78691-7.729032 21.024849-20.073174 36.377512-34.869159 44.183292-14.483876 59.854203-50.621934 106.251929-67.264986 125.190257 0.315178 3.477194 0.74906 6.92676 1.26583 10.141988M556.924165 918.406057M606.173846 620.658745l-54.17383 3.906983c-1.220804-9.152451-1.586125-17.5804-1.641383-23.780613-0.054235-7.254218 2.847861-14.268982 7.962346-19.387559 0.528026-0.528026 52.810786-53.391001 63.943334-121.579009 2.134617-13.057387 13.424754-22.657023 26.666336-22.657023 1.133823-1.24127 9.286504-12.793374 11.372002-31.840172 1.606591-14.771425-1.348718-27.725458-7.571443-32.972972-6.384407-5.435803-9.892301-13.476943-9.496282-21.840424 0.132006-3.009544 0.605797-7.493671 1.211595-13.193487 3.590781-33.524534 12.032034-112.054075-30.598902-159.50683-24.346501-27.062356-63.439868-40.808428-116.245538-40.808428-52.810786 0-91.904153 13.746072-116.250654 40.808428-42.630936 47.456848-34.189683 125.982296-30.598902 159.510924 0.605797 5.695722 1.079588 10.17985 1.211595 13.189394 0.396019 8.363482-3.111874 16.408715-9.496282 21.840424-6.222725 5.251607-9.179057 18.201547-7.571443 32.972972 2.085498 19.045775 10.239202 30.598902 13.296841 32.210609 13.242606 0 22.606881 9.232269 24.741497 22.289656 11.239995 68.739571 63.362096 121.022331 63.86454 121.520681 5.192256 5.14416 8.069793 12.134365 8.015557 19.417235-0.185218 23.422456-4.7727 78.5541-43.230594 84.620259-59.69866 9.520841-241.757113 94.538143-276.420587 179.000813l0 0 403.043473 0 28.716019 54.022381M125.164674 864.383676" p-id="2040"></path><path fill="#979797" d="M604.360548 626.752534" p-id="2041"></path><path fill="#979797" d="M917.355121 938.552909 551.281655 938.552909c-23.317055 0-42.240033-19.399839-42.240033-43.307342L509.041622 664.167678c0-23.936155 18.922978-43.309388 42.240033-43.309388l70.399373 0 0-14.446014c0-23.935132 18.922978-43.338041 42.240033-43.338041l140.797723 0c23.313985 0 42.236963 19.402909 42.236963 43.338041l0 14.446014 70.399373 0c23.317055 0 42.240033 19.401886 42.240033 43.309388l0 231.048213C959.595154 919.15307 940.672176 938.552909 917.355121 938.552909L917.355121 938.552909zM920.42504 676.640758c0-11.177574-8.9263-20.218484-19.937075-20.218484l-86.393649 0 0-33.706683c0-11.180644-8.9263-20.218484-19.937075-20.218484L674.508187 602.497107c-11.010775 0-19.937075 9.06854-19.937075 20.218484l0 33.706683-86.422302 0c-11.010775 0-19.937075 9.06854-19.937075 20.218484l0 202.270796c0 11.180644 8.9263 20.218484 19.937075 20.218484l332.311525 0c11.010775 0 19.937075-9.066493 19.937075-20.218484L920.397411 676.640758 920.42504 676.640758zM734.319411 866.354564c-54.434773 0-98.56076-45.25367-98.56076-101.093443 0-55.840796 44.125987-101.093443 98.56076-101.093443 54.431703 0 98.55769 45.251623 98.55769 101.093443C832.878125 821.072241 788.751115 866.354564 734.319411 866.354564L734.319411 866.354564zM734.319411 693.059706c-38.888705 0-70.399373 32.327266-70.399373 72.201415 0 39.872103 31.510668 72.201415 70.399373 72.201415 38.888705 0 70.399373-32.329313 70.399373-72.201415C804.718785 725.385948 773.208117 693.059706 734.319411 693.059706L734.319411 693.059706zM726.741829 727.708853c-15.546068 0-29.244045 15.089673-29.244045 31.05632L683.419138 758.765173c0-23.935132 19.978007-45.474704 43.322691-45.474704l10.825556 0 0 14.418384L726.741829 727.708853zM734.319411 736.369094" p-id="2042"></path></svg>