<?xml version="1.0" standalone="no"?><!DOCTYPE svg PUBLIC "-//W3C//DTD SVG 1.1//EN" "http://www.w3.org/Graphics/SVG/1.1/DTD/svg11.dtd"><svg t="1484818891049" class="icon" style="" viewBox="0 0 1024 1024" version="1.1" xmlns="http://www.w3.org/2000/svg" p-id="2701" xmlns:xlink="http://www.w3.org/1999/xlink" width="200" height="200"><defs><style type="text/css"></style></defs><path fill="rgb(244,80,209)" d="M567.382866 64.004733c-215.908398 0-391.542534 175.635159-391.542534 391.544581 0 97.91403 36.357046 187.29778 95.983051 256.013815l-82.000596 82.000596-78.113055-78.113055c-10.93505-10.936073-28.609595-10.936073-39.545668 0-10.936073 10.936073-10.936073 28.610618 0 39.546691L150.276097 833.110415l-78.113055 78.113055c-10.936073 10.93505-10.936073 28.610618 0 39.545668 5.454222 5.455245 12.612249 8.194636 19.773346 8.194636 7.15905 0 14.319124-2.739391 19.772322-8.194636l78.113055-78.113055 78.113055 78.113055c5.454222 5.455245 12.612249 8.194636 19.773346 8.194636 7.160073 0 14.319124-2.739391 19.772322-8.194636 10.936073-10.93505 10.936073-28.610618 0-39.545668l-78.113055-78.113055 82.001619-82.000596c68.715011 59.627029 158.127414 95.983051 256.012791 95.983051 215.910445 0 391.544581-175.635159 391.544581-391.542534C958.927447 239.639892 783.293311 64.004733 567.382866 64.004733zM567.382866 791.158954c-185.060833 0-335.608617-150.548808-335.608617-335.608617 0-185.061856 150.547785-335.609641 335.608617-335.609641 185.062879 0 335.610664 150.547785 335.610664 335.609641C902.99353 640.610146 752.445746 791.158954 567.382866 791.158954z" p-id="2702"></path></svg>