<?xml version="1.0" standalone="no"?><!DOCTYPE svg PUBLIC "-//W3C//DTD SVG 1.1//EN" "http://www.w3.org/Graphics/SVG/1.1/DTD/svg11.dtd"><svg t="1487064805923" class="icon" style="" viewBox="0 0 1024 1024" version="1.1" xmlns="http://www.w3.org/2000/svg" p-id="7597" xmlns:xlink="http://www.w3.org/1999/xlink" width="200" height="200"><defs><style type="text/css"></style></defs><path d="M1023.296 896 0.64 896 0.64 68.032l1022.656 0L1023.296 896zM49.344 847.232l925.312 0L974.656 116.8 49.344 116.8 49.344 847.232zM682.432 311.552c0 40.384 32.704 73.088 73.088 73.088s73.088-32.704 73.088-73.088-32.704-73.088-73.088-73.088S682.432 271.168 682.432 311.552zM25.088 652.48c-6.656 0-13.184-2.688-17.984-7.872C-1.92 634.752-1.344 619.328 8.512 610.24L324.992 318.08c4.736-4.352 10.752-6.848 17.536-6.464 6.528 0.256 12.544 3.072 16.96 7.872l267.904 292.16c9.088 9.856 8.384 25.344-1.536 34.368-9.856 9.152-25.28 8.448-34.368-1.472L340.096 370.304l-298.624 275.712C36.8 650.304 30.912 652.48 25.088 652.48zM998.976 798.592c-6.272 0-12.416-2.432-17.216-7.104L731.136 540.8 553.6 718.4c-9.536 9.472-24.96 9.472-34.496 0-9.472-9.472-9.472-24.896 0-34.432l194.816-194.752c9.472-9.6 24.96-9.6 34.432 0l267.904 267.84c9.472 9.472 9.472 24.896 0 34.432C1011.456 796.096 1005.248 798.592 998.976 798.592z" p-id="7598"></path></svg>