<?xml version="1.0" standalone="no"?><!DOCTYPE svg PUBLIC "-//W3C//DTD SVG 1.1//EN" "http://www.w3.org/Graphics/SVG/1.1/DTD/svg11.dtd"><svg t="1487060293041" class="icon" style="" viewBox="0 0 1024 1024" version="1.1" xmlns="http://www.w3.org/2000/svg" p-id="2726" xmlns:xlink="http://www.w3.org/1999/xlink" width="200" height="200"><defs><style type="text/css"></style></defs><path d="M962.34 368.384H64.658c0.993-0.16 1.986-0.39 2.972-0.702L968.75 81.986c10.782-3.419 16.75-14.93 13.334-25.711-3.42-10.783-14.932-16.754-25.712-13.334L55.25 328.637c-10.782 3.419-16.75 14.93-13.334 25.711 2.515 7.933 9.414 13.245 17.176 14.146-10.31 1.065-18.352 9.776-18.352 20.369v574.464c0 11.311 9.169 20.48 20.48 20.48h901.12c11.311 0 20.48-9.169 20.48-20.48V388.863c0-11.31-9.169-20.479-20.48-20.479z m-20.48 51.2v72.704H655.909l81.517-81.518c0.46-0.458 0.883-0.937 1.29-1.426H931.62c5.655 0 10.24 4.584 10.24 10.24z m-260.936-10.24l-76.397 76.398a20.41 20.41 0 0 0-4.393 6.546h-254.5l82.945-82.944h252.345z m-588.983 0h278.711l-82.944 82.944H81.701v-72.704c0-5.656 4.584-10.24 10.24-10.24z m839.68 533.504H91.94c-5.656 0-10.24-4.584-10.24-10.24v-399.36h860.16v399.36c0 5.656-4.585 10.24-10.24 10.24z" fill="" p-id="2727"></path></svg>