<?xml version="1.0" standalone="no"?><!DOCTYPE svg PUBLIC "-//W3C//DTD SVG 1.1//EN" "http://www.w3.org/Graphics/SVG/1.1/DTD/svg11.dtd"><svg t="1487044463826" class="icon" style="" viewBox="0 0 1024 1024" version="1.1" xmlns="http://www.w3.org/2000/svg" p-id="2030" xmlns:xlink="http://www.w3.org/1999/xlink" width="20" height="20"><defs><style type="text/css"></style></defs><path d="M888.49891 285.901519c-13.290701-17.305131-34.316573-30.465872-57.678654-30.465872L249.261017 255.435647l-6.018064-45.796022c-4.3951-33.762965-33.32192-60.627822-70.337975-60.627822l-33.017998 0c-9.785877 0-17.720593 8.112772-17.720593 17.907858 0 9.795087 7.934716 17.907858 17.720593 17.907858l33.017998 0c14.640442 0 32.646538 8.284687 35.190477 27.840068l67.664076 517.788843c4.499477 34.524305 34.07405 56.075133 70.336952 56.075133l449.454502 0c9.795087 0 17.720593-7.601118 17.720593-17.396205s-7.925507-17.396205-17.720593-17.396205l-449.454502 0c-18.516726 0-32.992415-10.276041-35.190477-27.183106l-5.705955-43.425022 447.728184 0c33.001625 0 60.585867-18.077727 68.615751-48.258097l77.890998-287.677978C904.903531 324.704267 900.923894 302.06464 888.49891 285.901519zM865.205391 336.028173l-77.908394 288.308335c-3.911076 14.69263-17.392112 20.977777-34.368762 20.977777l-452.434369 0-46.526663-354.063945 576.85203 0c12.269441 0 23.050995 7.117095 29.574572 15.613606C866.139669 314.340221 867.836311 326.147128 865.205391 336.028173z" p-id="2031"></path><path d="M423.417499 839.743486l-70.882374 0c-9.785877 0-17.720593 8.112772-17.720593 17.907858s7.934716 17.907858 17.720593 17.907858l70.882374 0c9.795087 0 17.720593-8.112772 17.720593-17.907858S433.212586 839.743486 423.417499 839.743486z" p-id="2032"></path><path d="M742.389204 839.743486l-70.882374 0c-9.795087 0-17.720593 8.112772-17.720593 17.907858s7.925507 17.907858 17.720593 17.907858l70.882374 0c9.795087 0 17.720593-8.112772 17.720593-17.907858S752.184291 839.743486 742.389204 839.743486z" p-id="2033"></path></svg>