<?xml version="1.0" standalone="no"?><!DOCTYPE svg PUBLIC "-//W3C//DTD SVG 1.1//EN" "http://www.w3.org/Graphics/SVG/1.1/DTD/svg11.dtd"><svg t="1487064593475" class="icon" style="" viewBox="0 0 1024 1024" version="1.1" xmlns="http://www.w3.org/2000/svg" p-id="2030" xmlns:xlink="http://www.w3.org/1999/xlink" width="200" height="200"><defs><style type="text/css"></style></defs><path d="M508.29824 68.16256c-250.51648 0-453.632 203.11552-453.632 453.632s203.11552 453.63072 453.632 453.63072c250.51648 0 453.632-203.11552 453.632-453.63072S758.81472 68.16256 508.29824 68.16256zM508.29824 937.62432c-229.28896 0-415.82976-186.53952-415.82976-415.82848 0-229.28896 186.53952-415.82976 415.82976-415.82976S924.128 292.5056 924.128 521.79456C924.128 751.08352 737.5872 937.62432 508.29824 937.62432z" p-id="2031"></path><path d="M508.29824 559.59808 281.48224 559.59808 281.48224 597.40032 546.10176 597.40032 546.10176 220.92416 508.29824 220.92416Z" p-id="2032"></path></svg>