<?xml version="1.0" encoding="utf-8"?>
<!-- Generator: Adobe Illustrator 19.0.0, SVG Export Plug-In . SVG Version: 6.00 Build 0)  -->
<svg version="1.1" xmlns="http://www.w3.org/2000/svg" xmlns:xlink="http://www.w3.org/1999/xlink" x="0px" y="0px"
	 viewBox="214 -92.1 1024 1024" style="enable-background:new 214 -92.1 1024 1024;" xml:space="preserve">
<style type="text/css">
	.st0{display:none;}
	.st1{display:inline;}
	.st2{fill:white;}
	.st3{fill:white;stroke:white;stroke-miterlimit:10;}
	.st4{fill:none;stroke:white;stroke-width:30;stroke-miterlimit:10;}
	.st5{display:inline;fill:white;stroke:white;stroke-width:4;stroke-miterlimit:10;}
	.st6{fill:white;}
</style>
<g id="图层_1" class="st0">
	<g id="图层_1_1_" class="st1">
	</g>
	<g id="图层_2" class="st1">
		<g id="XMLID_169_">
			<g id="XMLID_226_">
				<path class="st2" d="M919.3,385.1c15.9,10.2,0,20.7,0,20.7S793.8,509.9,623.4,651.7c-11.2,9.3-19.6,6.5-19.6,6.5
					c-15.2-4.4-13.1-17.4-13.1-17.4V208.7c0.8-16.1,12.2-21.5,12.2-21.5c11.7-4,21.8,4.1,21.8,4.1
					C795.6,304.7,918.9,385.1,919.3,385.1z"/>
			</g>
			<g id="XMLID_227_">
				<path class="st3" d="M919.3,405.9c0,0-125.5,104-295.9,245.8c-11.2,9.3-19.6,6.5-19.6,6.5c-15.2-4.4-13.1-17.4-13.1-17.4V208.7
					c0.8-16.1,12.2-21.5,12.2-21.5c11.7-4,21.8,4.1,21.8,4.1c170.9,113.4,294.2,193.8,294.5,193.8
					C935.2,395.3,919.3,405.9,919.3,405.9z"/>
			</g>
		</g>
		<circle id="XMLID_10_" class="st4" cx="725.8" cy="420.9" r="447.8"/>
	</g>
	<g id="图层_3">
		<g id="XMLID_9_" class="st1">
			<g id="XMLID_3_">
				<g id="XMLID_12_">
					
						<rect x="594.3" y="324.6" transform="matrix(-0.7071 0.7071 -0.7071 -0.7071 1567.0857 129.9876)" class="st2" width="324.6" height="129.9"/>
					<path class="st2" d="M520,646.3c-5.9,1.6-11.9-0.3-15.8-4.3c-4.1-3.9-5.9-10-4.3-15.8L540.6,474c0.3-1.3,0.6-2.5,1.1-3.7
						c0.1-0.2,0.1-0.4,0.2-0.5c1.3-3.3,3.2-6.2,5.8-8.9l10.8-10.8l248.7-248.7c10.2-10.2,26.6-10.2,36.8,0l100.9,100.9
						c10.1,10.2,10.1,26.6,0,36.7L685.3,598.6c-2.4,2.3-5.1,4.1-8,5.5c-0.7,0.3-1.5,0.6-2.3,0.8c-0.9,0.4-1.7,0.5-2.6,0.7L520,646.3
						z M595.9,458.4l91.8,91.8l229.5-229.5l-91.8-91.8L595.9,458.4z M664.9,573.1l8.3-8.3L581.4,473l-8.3,8.2L557,540l49.1,49.1
						L664.9,573.1z"/>
				</g>
				<g id="XMLID_13_">
					<path class="st3" d="M944.8,302.2L843.9,201.4c-10.2-10.2-26.6-10.2-36.8,0L558.4,450.1l-10.8,10.8c-2.7,2.7-4.6,5.6-5.8,8.9
						c-0.1,0.1-0.1,0.3-0.2,0.5c-0.4,1.3-0.8,2.5-1.1,3.7l-40.7,152.2c-1.5,5.8,0.3,11.8,4.3,15.8c3.9,4.1,10,6,15.8,4.3l152.5-40.7
						c0.9-0.2,1.7-0.4,2.6-0.7c0.8-0.2,1.6-0.6,2.3-0.8c2.9-1.3,5.6-3.2,8-5.5L944.8,339C954.9,328.9,954.9,312.4,944.8,302.2z"/>
					<polygon class="st3" points="664.9,573.1 606,589.2 556.9,540.1 573,481.3 581.3,473.1 673.1,564.8 					"/>
					
						<rect x="691.7" y="227.2" transform="matrix(-0.7071 -0.7071 0.7071 -0.7071 1016.2681 1199.9672)" class="st3" width="129.9" height="324.6"/>
				</g>
			</g>
		</g>
		<circle id="XMLID_1_" class="st5" cx="725.8" cy="420.3" r="447.1"/>
	</g>
</g>
<g id="图层_2_1_">
	<g id="图层_4">
		<g id="XMLID_2_">
			<g>
				<path class="st6" d="M950.6,233.1v19.7h-44.4l-18.8,369.7l0.3,2.4c0,19.5-18.3,35.9-40.9,35.9H602.4
					c-22.6,0-40.9-16.4-40.9-36.6l-26.7-371.5h-36.2v-19.7H536h87.6v-10.2c0-20.2,18.3-36.6,40.9-36.6h120.2
					c22.6,0,40.9,16.4,40.9,36.6v10.2h87.5L950.6,233.1L950.6,233.1z M799,591l24.2-285.4l-32.6-1.3l-19,285.6L799,591z
					 M805.9,233.1V223c0-9.3-9.5-16.9-21.1-16.9H664.5c-11.7,0-21.1,7.6-21.1,16.9v10.2H805.9z M734.5,589.2V304.9l-33.5,0.5
					l1,284.5L734.5,589.2z M668.1,588l-22.3-283.8l-32.2,2.4l24.2,281.4L668.1,588z"/>
			</g>
		</g>
	</g>
	<circle id="XMLID_4_" class="st4" cx="724.6" cy="420.8" r="447.8"/>
</g>
</svg>
