<?xml version="1.0" standalone="no"?><!DOCTYPE svg PUBLIC "-//W3C//DTD SVG 1.1//EN" "http://www.w3.org/Graphics/SVG/1.1/DTD/svg11.dtd"><svg t="1484818878149" class="icon" style="" viewBox="0 0 1024 1024" version="1.1" xmlns="http://www.w3.org/2000/svg" p-id="2022" xmlns:xlink="http://www.w3.org/1999/xlink" width="200" height="200"><defs><style type="text/css"></style></defs><path fill="rgb(174,227,249)" d="M454.998775 211.707726c196.618053-3.507894 359.449605 153.602354 362.952382 350.225523 3.50687 196.627263-153.597237 359.452675-350.220407 362.955452-196.623169 3.51301-359.453698-153.596214-362.961592-350.2245-3.507894-196.618053 153.596214-359.453698 350.2245-362.961592L454.998775 211.707726zM466.880383 877.764428c170.646542-3.038196 306.98879-144.343479 303.94036-314.986951-3.052522-170.640402-144.352689-306.987766-314.992067-303.935244-170.635285 3.047406-306.987766 144.352689-303.939337 314.988997C154.936745 744.476749 296.242028 880.817973 466.880383 877.764428L466.880383 877.764428zM455.348746 230.78727c186.109722-3.311419 340.207355 145.389298 343.533101 331.50516 3.321652 186.109722-145.378042 340.217588-331.494926 343.543334-186.104605 3.316535-340.217588-145.378042-343.543334-331.494926-3.324722-186.115861 145.389298-340.227822 331.500043-343.54845L455.348746 230.78727zM467.230354 896.843972c181.152826-3.234671 325.909721-153.24829 322.68119-334.406233-3.234671-181.163059-153.243173-325.915861-334.406233-322.691423C274.352485 242.98201 129.585357 392.996652 132.819005 574.158688 136.048559 755.316631 286.062178 900.073526 467.230354 896.843972L467.230354 896.843972zM890.246717 99.837846c6.287193-0.112564 12.255115 2.217505 16.780175 6.600325 9.349949 9.025561 9.606799 23.971971 0.595564 33.32806L723.634048 330.445014c-4.365424 4.52813-10.248412 7.076162-16.531512 7.192819-6.302543 0.115634-12.262278-2.224668-16.779152-6.601348-4.535293-4.371564-7.082302-10.245342-7.203052-16.541745-0.11154-6.288217 2.229784-12.257162 6.600325-16.780175L873.713158 107.039875c4.368494-4.52813 10.251481-7.076162 16.533558-7.191796L890.246717 99.837846zM890.575198 118.91739c1.146103-0.01535 2.309602 0.400113 3.193739 1.252527 1.784646 1.724271 1.834788 4.564969 0.11768 6.343475L709.899232 317.193199c-1.724271 1.784646-4.559852 1.839905-6.345522 0.116657-1.782599-1.723248-1.834788-4.554736-0.115634-6.343475l183.987385-190.679807C888.300388 119.401414 889.422955 118.936833 890.575198 118.91739L890.575198 118.91739zM890.575198 118.91739" p-id="2023"></path><path fill="rgb(174,227,249)" d="M874.03243 106.254999c4.365424-4.52506 10.234085-7.097652 16.532535-7.198959 12.993942-0.229221 23.743774 10.157337 23.987321 23.14514l4.731768 264.929882c0.115634 6.28924-2.243087 12.251022-6.603395 16.776082-4.374634 4.538363-10.243295 7.097652-16.532535 7.196912-6.29845 0.115634-12.252045-2.235924-16.790408-6.603395-4.52506-4.367471-7.090489-10.243295-7.197936-16.532535l-4.724605-264.929882c-0.113587-6.291287 2.245134-12.252045 6.605442-16.776082L874.03243 106.254999z" p-id="2024"></path><path fill="rgb(174,227,249)" d="M609.241718 144.308687c-4.52506-4.366448-7.097652-10.234085-7.198959-16.532535-0.229221-12.993942 10.157337-23.743774 23.14514-23.987321l264.929882-4.731768c6.28924-0.115634 12.251022 2.243087 16.776082 6.603395 4.538363 4.374634 7.097652 10.243295 7.196912 16.532535 0.115634 6.29845-2.235924 12.252045-6.603395 16.790408-4.367471 4.52506-10.243295 7.090489-16.532535 7.198959l-264.929882 4.724605c-6.291287 0.113587-12.252045-2.245134-16.776082-6.605442L609.241718 144.308687z" p-id="2025"></path></svg>