<?xml version="1.0" encoding="utf-8"?>
<!-- Generator: Adobe Illustrator 19.0.0, SVG Export Plug-In . SVG Version: 6.00 Build 0)  -->
<svg version="1.1" xmlns="http://www.w3.org/2000/svg" xmlns:xlink="http://www.w3.org/1999/xlink" x="0px" y="0px"
	 viewBox="0 0 1024 1024" style="enable-background:new 0 0 1024 1024;" xml:space="preserve">
<style type="text/css">
	.st0{fill:white;}
	.st1{fill:none;stroke:white;stroke-miterlimit:10;}
	.st2{fill-rule:evenodd;clip-rule:evenodd;fill:none;stroke:white;stroke-width:30;stroke-miterlimit:10;}
	.st3{display:none;}
	.st4{display:inline;}
	.st5{display:inline;fill-rule:evenodd;clip-rule:evenodd;fill:none;stroke:white;stroke-width:4;stroke-miterlimit:10;}
</style>
<g id="图层_1">
</g>
<g id="图层_2">
	<g id="XMLID_169_">
		<g id="XMLID_226_">
			<path class="st0" d="M705.3,477.2c15.9,10.2,0,20.7,0,20.7S579.8,602,409.4,743.8c-11.2,9.3-19.6,6.5-19.6,6.5
				c-15.2-4.4-13.1-17.4-13.1-17.4V300.8c0.8-16.1,12.2-21.5,12.2-21.5c11.7-4,21.8,4.1,21.8,4.1
				C581.6,396.8,704.9,477.2,705.3,477.2z"/>
		</g>
		<g id="XMLID_227_">
			<path class="st1" d="M705.3,498c0,0-125.5,104-295.9,245.8c-11.2,9.3-19.6,6.5-19.6,6.5c-15.2-4.4-13.1-17.4-13.1-17.4V300.8
				c0.8-16.1,12.2-21.5,12.2-21.5c11.7-4,21.8,4.1,21.8,4.1c170.9,113.4,294.2,193.8,294.5,193.8C721.2,487.4,705.3,498,705.3,498z"
				/>
		</g>
	</g>
	<circle id="XMLID_10_" class="st2" cx="511.8" cy="513" r="447.8"/>
</g>
<g id="图层_3" class="st3">
	<g id="XMLID_9_" class="st4">
		<g id="XMLID_3_">
			<g id="XMLID_12_">
				
					<rect x="380.3" y="416.7" transform="matrix(0.7071 -0.7071 0.7071 0.7071 -181.6256 524.7556)" class="st0" width="324.6" height="129.9"/>
				<path class="st0" d="M306,738.4c-5.9,1.6-11.9-0.3-15.8-4.3c-4.1-3.9-5.9-10-4.3-15.8l40.7-152.2c0.3-1.3,0.6-2.5,1.1-3.7
					c0.1-0.2,0.1-0.4,0.2-0.5c1.3-3.3,3.2-6.2,5.8-8.9l10.8-10.8l248.7-248.7c10.2-10.2,26.6-10.2,36.8,0l100.9,100.9
					c10.1,10.2,10.1,26.6,0,36.7L471.3,690.7c-2.4,2.3-5.1,4.1-8,5.5c-0.7,0.3-1.5,0.6-2.3,0.8c-0.9,0.4-1.7,0.5-2.6,0.7L306,738.4z
					 M381.9,550.5l91.8,91.8l229.5-229.5l-91.8-91.8L381.9,550.5z M450.9,665.2l8.3-8.3l-91.8-91.8l-8.3,8.2l-16.1,58.8l49.1,49.1
					L450.9,665.2z"/>
			</g>
			<g id="XMLID_13_">
				<path class="st1" d="M730.8,394.3L629.9,293.5c-10.2-10.2-26.6-10.2-36.8,0L344.4,542.2L333.6,553c-2.7,2.7-4.6,5.6-5.8,8.9
					c-0.1,0.1-0.1,0.3-0.2,0.5c-0.4,1.3-0.8,2.5-1.1,3.7l-40.7,152.2c-1.5,5.8,0.3,11.8,4.3,15.8c3.9,4.1,10,6,15.8,4.3l152.5-40.7
					c0.9-0.2,1.7-0.4,2.6-0.7c0.8-0.2,1.6-0.6,2.3-0.8c2.9-1.3,5.6-3.2,8-5.5l259.5-259.6C740.9,421,740.9,404.5,730.8,394.3z"/>
				<polygon class="st1" points="450.9,665.2 392,681.3 342.9,632.2 359,573.4 367.3,565.2 459.1,656.9 				"/>
				
					<rect x="477.7" y="319.3" transform="matrix(0.7071 0.7071 -0.7071 0.7071 499.4869 -242.6296)" class="st1" width="129.9" height="324.6"/>
			</g>
		</g>
	</g>
	<circle id="XMLID_1_" class="st5" cx="511.8" cy="512.4" r="447.1"/>
</g>
</svg>
